<svg width="24" height="24" viewBox="0 0 24 24" fill="none" xmlns="http://www.w3.org/2000/svg">
<path d="M24.0001 12.27C24.0001 11.48 23.9286 10.73 23.806 10H12.2606V14.51H18.8711C18.5748 15.99 17.7064 17.24 16.419 18.09V21.09H20.3628C22.6719 19 24.0001 15.92 24.0001 12.27Z" fill="#4285F4"/>
<path d="M12.2608 24C15.5711 24 18.34 22.92 20.363 21.09L16.4191 18.09C15.3157 18.81 13.916 19.25 12.2608 19.25C9.06283 19.25 6.35529 17.14 5.38467 14.29H1.31825V17.38C3.33102 21.3 7.46896 24 12.2608 24Z" fill="#34A853"/>
<path d="M5.38431 14.2901C5.12888 13.5701 4.99606 12.8001 4.99606 12.0001C4.99606 11.2001 5.1391 10.4301 5.38431 9.71011V6.62012H1.3179C0.480096 8.24011 -0.000106812 10.0601 -0.000106812 12.0001C-0.000106812 13.9401 0.480096 15.7601 1.3179 17.3801L5.38431 14.2901Z" fill="#FBBC05"/>
<path d="M12.2608 4.74999C14.0692 4.74999 15.6835 5.35999 16.9607 6.54999L20.4549 3.12999C18.34 1.19 15.5711 0 12.2608 0C7.46896 0 3.33102 2.7 1.31825 6.61999L5.38467 9.70998C6.35529 6.85999 9.06283 4.74999 12.2608 4.74999Z" fill="#EA4335"/>
</svg>
