<svg width="24" height="24" viewBox="0 0 24 24" fill="none" xmlns="http://www.w3.org/2000/svg">
<path d="M20.04 6.32006L14.28 2.29006C12.71 1.19006 10.3 1.25006 8.78999 2.42006L3.77999 6.33006C2.77999 7.11006 1.98999 8.71006 1.98999 9.97006V16.8701C1.98999 19.4201 4.05999 21.5001 6.60999 21.5001H17.39C19.94 21.5001 22.01 19.4301 22.01 16.8801V10.1001C22.01 8.75006 21.14 7.09006 20.04 6.32006ZM12.75 17.5001C12.75 17.9101 12.41 18.2501 12 18.2501C11.59 18.2501 11.25 17.9101 11.25 17.5001V14.5001C11.25 14.0901 11.59 13.7501 12 13.7501C12.41 13.7501 12.75 14.0901 12.75 14.5001V17.5001Z" fill="#D60000"/>
</svg>
