<svg width="24" height="24" viewBox="0 0 24 24" fill="none" xmlns="http://www.w3.org/2000/svg">
<path d="M8.5 18.5H8C4 18.5 2 17.5 2 12.5V7.5C2 3.5 4 1.5 8 1.5H16C20 1.5 22 3.5 22 7.5V12.5C22 16.5 20 18.5 16 18.5H15.5C15.19 18.5 14.89 18.65 14.7 18.9L13.2 20.9C12.54 21.78 11.46 21.78 10.8 20.9L9.3 18.9C9.14 18.68 8.77 18.5 8.5 18.5Z" stroke="#A7A9B7" stroke-width="1.5" stroke-miterlimit="10" stroke-linecap="round" stroke-linejoin="round"/>
<path d="M15.9965 10.5H16.0054" stroke="#A7A9B7" stroke-width="2" stroke-linecap="round" stroke-linejoin="round"/>
<path d="M11.9955 10.5H12.0045" stroke="#A7A9B7" stroke-width="2" stroke-linecap="round" stroke-linejoin="round"/>
<path d="M7.99451 10.5H8.00349" stroke="#A7A9B7" stroke-width="2" stroke-linecap="round" stroke-linejoin="round"/>
</svg>
