<svg width="24" height="24" viewBox="0 0 24 24" fill="none" xmlns="http://www.w3.org/2000/svg">
<path d="M12.1601 10.37C12.0601 10.36 11.9401 10.36 11.8301 10.37C9.45006 10.29 7.56006 8.34 7.56006 5.94C7.56006 3.49 9.54006 1.5 12.0001 1.5C14.4501 1.5 16.4401 3.49 16.4401 5.94C16.4301 8.34 14.5401 10.29 12.1601 10.37Z" stroke="#A7A9B7" stroke-width="1.5" stroke-linecap="round" stroke-linejoin="round"/>
<path d="M7.15997 14.06C4.73997 15.68 4.73997 18.32 7.15997 19.93C9.90997 21.77 14.42 21.77 17.17 19.93C19.59 18.31 19.59 15.67 17.17 14.06C14.43 12.23 9.91997 12.23 7.15997 14.06Z" stroke="#A7A9B7" stroke-width="1.5" stroke-linecap="round" stroke-linejoin="round"/>
</svg>
