<svg width="24" height="24" viewBox="0 0 24 24" fill="none" xmlns="http://www.w3.org/2000/svg">
<path d="M22 5.5V7.92C22 9.5 21 10.5 19.42 10.5H16V3.51C16 2.4 16.91 1.5 18.02 1.5C19.11 1.51 20.11 1.95 20.83 2.67C21.55 3.4 22 4.4 22 5.5Z" stroke="#A7A9B7" stroke-width="1.5" stroke-miterlimit="10" stroke-linecap="round" stroke-linejoin="round"/>
<path d="M2 6.5V20.5C2 21.33 2.93998 21.8 3.59998 21.3L5.31 20.02C5.71 19.72 6.27 19.76 6.63 20.12L8.28998 21.79C8.67998 22.18 9.32002 22.18 9.71002 21.79L11.39 20.11C11.74 19.76 12.3 19.72 12.69 20.02L14.4 21.3C15.06 21.79 16 21.32 16 20.5V3.5C16 2.4 16.9 1.5 18 1.5H7H6C3 1.5 2 3.29 2 5.5V6.5Z" stroke="#A7A9B7" stroke-width="1.5" stroke-miterlimit="10" stroke-linecap="round" stroke-linejoin="round"/>
<path d="M6 8.5H12" stroke="#A7A9B7" stroke-width="1.5" stroke-linecap="round" stroke-linejoin="round"/>
<path d="M6.75 12.5H11.25" stroke="#A7A9B7" stroke-width="1.5" stroke-linecap="round" stroke-linejoin="round"/>
</svg>
